<?xml version="1.0" encoding="utf-8"?>
<!-- Generator: Adobe Illustrator 25.2.1, SVG Export Plug-In . SVG Version: 6.00 Build 0)  -->
<svg version="1.1" id="Layer_1" xmlns="http://www.w3.org/2000/svg" xmlns:xlink="http://www.w3.org/1999/xlink" x="0px" y="0px"
	 viewBox="0 0 692.7 597" style="enable-background:new 0 0 692.7 597;" xml:space="preserve">
<style type="text/css">
	.st0{fill:#FDB4B4;}
	.st1{fill:#9B9B9E;}
	.st2{fill:#2E2E41;}
	.st3{fill:#E8E9EA;}
	.st4{fill:#D6D7D8;}
	.st5{fill:#3D3D3D;}
	.st6{fill:#3F3C57;}
</style>
<g>
	<polygon class="st0" points="225,63.4 232.5,97.7 216.5,145.3 190.8,94.1 194.4,64.4 	"/>
	<rect x="189.5" y="95.9" class="st1" width="44.4" height="53.6"/>
	<circle class="st0" cx="215.6" cy="50.4" r="30.3"/>
	<path class="st2" d="M189.2,72.9c0,0-22.6-41.7-2.2-61.8s36.7-6.8,36.7-6.8l9.3-0.4c0,0,1.9,7.3,5.1,3.4s8.8,10.5,8.8,10.5
		c10.5,19-26,23.2-26,23.2s2.6,8.4,0,10.2s-9.8,8.4-9.8,8.4l-6.4,4.8l-3.8-5.8c0,0-4-3.1-6-1.8s0.8,18.7,0.8,18.7L189.2,72.9
		L189.2,72.9C189.2,72.9,189.2,72.9,189.2,72.9z"/>
	<polygon class="st2" points="152.9,379.8 141.3,552.6 169.8,553.5 207.4,381.2 	"/>
	<polygon class="st2" points="221.9,378.8 210.3,551.6 238.8,552.6 276.5,380.3 	"/>
	<path class="st3" d="M145.9,419.3l15.2-188.2l-23.2-98c-2-14.6,7.2-28.4,21.3-32.1l22.8-6L192,84.8l22.9,50.6l14.3-50.5l11.2,8.1
		l33.1,14.6l0,0.3l-5.3,118.4L280,417.6l-0.5,0L145.9,419.3L145.9,419.3z"/>
	<path class="st2" d="M237,550.6l8.2,24.6c0,0,32.3,4.4,32.8,14.4s-43.8,4.2-69.8,5.5s-4.4-26.8-4.4-26.8l2.8-16.2L237,550.6
		L237,550.6L237,550.6z"/>
	<path class="st2" d="M169.6,548.8l8.2,24.6c0,0,32.3,4.4,32.8,14.4s-43.8,4.2-69.8,5.5s-4.4-26.8-4.4-26.8l2.8-16.2L169.6,548.8
		L169.6,548.8z"/>
	<path id="uuid-2a99fb06-c611-4846-a9cf-67468c4aeefc-13" class="st0" d="M129.4,319.3c-0.3-4.9,0.5-9.7,2.4-14.2l-6.2-50.5
		l24.1-2.2l3.6,51.5c2.4,4.2,3.8,9,4,13.8c0.7,12.2-5,22.4-12.7,22.8S130.1,331.5,129.4,319.3L129.4,319.3L129.4,319.3L129.4,319.3z
		"/>
	<path id="uuid-a83e19fb-8297-4073-aac4-48fd1880d45d-14" class="st0" d="M282.1,326.7c-0.3-4.9,0.6-9.7,2.5-14.2L279,262l24.1-2
		l3.1,51.5c2.4,4.2,3.7,9,3.9,13.9c0.6,12.2-5.2,22.3-13,22.7S282.7,338.9,282.1,326.7L282.1,326.7L282.1,326.7L282.1,326.7z"/>
	<path class="st3" d="M125.5,299.1l-0.1-0.4l-12.6-67.4l14.8-109.8c1.3-9.8,10.1-16.9,19.9-16.1c5.2,0.4,9.8,2.9,13,6.9
		c3.2,4,4.6,9.1,4,14.2l-11.2,82.3l7,88.1C160.5,296.8,125.5,299.1,125.5,299.1z"/>
	<path class="st3" d="M274.7,297.5l-25.3-168.6c-1.3-4.9-0.5-10.1,2.2-14.5s7-7.4,12.1-8.4c9.7-2,19.3,3.9,21.8,13.5l24.3,176
		L274.7,297.5L274.7,297.5z"/>
	<circle class="st4" cx="215.6" cy="147.7" r="3.1"/>
	<circle class="st4" cx="215.6" cy="171.2" r="3.1"/>
	<circle class="st4" cx="215.6" cy="194.7" r="3.1"/>
	<circle class="st4" cx="215.6" cy="218.2" r="3.1"/>
	<circle class="st4" cx="215.6" cy="241.6" r="3.1"/>
	<circle class="st4" cx="215.6" cy="265.1" r="3.1"/>
	<circle class="st4" cx="215.6" cy="288.6" r="3.1"/>
	<circle class="st4" cx="215.6" cy="312.1" r="3.1"/>
	<polygon class="st5" points="215.6,333.4 157,325.5 155.8,325.4 125.8,256.2 108,215.1 154.5,215.1 	"/>
</g>
<g>
	<polygon class="st2" points="450.9,71 488.2,50.5 488.2,108.9 445.1,108.9 	"/>
	<polygon class="st0" points="496.2,84 499.7,112.7 474.9,162.1 459.5,116.1 466.7,83 	"/>
	<rect x="458.1" y="114.4" class="st1" width="42.8" height="51.8"/>
	<polygon class="st2" points="536.3,388.5 547.5,555.4 520,556.3 483.6,389.9 	"/>
	<polygon class="st2" points="469.6,387.6 480.8,554.5 453.3,555.4 417,389 	"/>
	<path class="st3" d="M565.4,423.9l-0.7,0l-175.2-0.6l0.2-0.6l45-178.5l-11.3-90.1c-2.1-17.1,7-33.2,22.7-40.1l5.7-2.5l10.8-7.8
		l13.8,48.8l22.1-48.8l9.7,9.7l22,5.8c13.7,3.6,22.6,17,20.6,31l0,0.1L517.3,246L565.4,423.9z"/>
	<path class="st2" d="M455.1,553.5l29.3,1.5l2.7,15.6c0,0,20.9,27.2-4.2,25.9s-67.9,4.3-67.4-5.3s31.6-13.9,31.6-13.9L455.1,553.5
		L455.1,553.5L455.1,553.5z"/>
	<path class="st2" d="M520.1,551.8l29.3,1.5l2.7,15.6c0,0,20.9,27.2-4.2,25.9s-67.9,4.3-67.4-5.3s31.6-13.9,31.6-13.9L520.1,551.8
		L520.1,551.8L520.1,551.8z"/>
	<path id="uuid-3bc2e7c3-8a4e-432b-b93d-ff096d796d3b-15" class="st0" d="M547,328.4L547,328.4c-0.7,11.7-7.3,20.9-14.8,20.5
		c-7.5-0.4-13-10.3-12.3-22c0.2-4.7,1.5-9.3,3.9-13.3l3.5-49.7l23.3,2.1l-5.9,48.8C546.5,319,547.3,323.7,547,328.4L547,328.4z"/>
	<path id="uuid-a34cbb18-fa14-4c0b-8260-87fab6b8d9f9-16" class="st0" d="M427.4,323.9L427.4,323.9c-0.9,11.7-7.7,20.7-15.2,20.1
		s-12.7-10.6-11.8-22.3c0.3-4.7,1.7-9.2,4.2-13.3l4.6-49.6l23.2,2.6l-7,48.6C427.1,314.5,427.8,319.3,427.4,323.9L427.4,323.9
		L427.4,323.9z"/>
	<path class="st3" d="M550.7,308.9l-33.8-2.2l0-0.5l6.8-84.5l-10.8-79.5c-0.7-5,0.7-9.8,3.8-13.7c3.1-3.9,7.6-6.3,12.6-6.7l0,0
		c9.5-0.8,18,6.1,19.3,15.5l14.3,106l0,0.1L550.7,308.9z"/>
	<path class="st3" d="M433,305.6l-33.9-2l0.1-0.5l23.4-169.4c2.5-9.3,11.7-15,21.1-13.1c4.9,1,9,3.9,11.7,8.2s3.4,9.3,2.1,14.1
		L433,305.6z"/>
	<circle class="st4" cx="475.7" cy="164.4" r="3"/>
	<circle class="st4" cx="475.7" cy="187.1" r="3"/>
	<circle class="st4" cx="475.7" cy="209.8" r="3"/>
	<circle class="st4" cx="475.7" cy="232.4" r="3"/>
	<circle class="st4" cx="475.7" cy="255.1" r="3"/>
	<circle class="st4" cx="475.7" cy="277.8" r="3"/>
	<circle class="st4" cx="475.7" cy="300.5" r="3"/>
	<circle class="st4" cx="475.7" cy="323.1" r="3"/>
	<circle class="st0" cx="480.3" cy="70.6" r="28"/>
	<path class="st2" d="M494.9,37.9c1.3,2.7-0.8,6.1-3.6,7.3s-6,0.7-9,0.2s-6.2-0.9-9,0.2c-3.6,1.5-5.7,5.3-7.4,8.8
		c-3.3,6.6-6.6,13.1-9.9,19.7c-1.6,3.2-3.3,6.6-3.3,10.2c-0.1,6.6,5.2,11.9,8,17.8c3.4,7.3,3.1,16.1-0.7,23.2
		c-3.9,7-11.3,12-19.2,13c-2.1,0.3-4.3,0.2-6.2-0.7s-3.3-3-3-5.1c0.7-4.1,6.9-5,8-9c0.6-2.1-0.5-4.3-1.9-5.9s-3.2-2.9-4.6-4.6
		c-3.1-3.9-3.3-9.8-0.5-13.9c1.7-2.4,4.3-4.2,5.4-6.9c0.9-2.3,0.6-4.9,0.2-7.4c-0.4-3.2-0.9-6.3-1.3-9.5c-0.5-3.7-1-7.5,0-11.1
		c2.4-8.2,11.7-12.1,17.1-18.7c2.5-3.1,4.2-6.8,6.8-9.8c4.4-5.1,11.2-7.8,17.9-7.3c6.6,0.6,12.9,4.5,16.3,10.2"/>
	<path class="st2" d="M490.5,38.4c-1.4,0.5-1.9,2.3-1.5,3.7c0.4,1.4,1.4,2.5,2.4,3.6c10.7,12.5,13.2,31.4,6.1,46.2
		c-1.9,3.9-4.4,7.7-5.4,11.9c-0.7,3.1-0.7,6.5-2.4,9.2c-1.7,2.7-5.2,4.6-5.6,7.8c-0.2,2.1,1,4.1,2.7,5.3s3.8,1.8,5.8,2.2
		c5.3,1.2,10.7,1.8,16.1,1.9c1.8,0,3.6,0,5.2-0.7s3-2.2,3-4c0-1.4-0.8-2.7-0.9-4c-0.3-4.1,5.3-6.3,6.3-10.3c0.7-2.6-0.7-5.3-2.2-7.6
		c-1.5-2.3-3.2-4.7-3.2-7.4c0-2.6,1.7-4.9,2.3-7.4c0.9-3.5-0.2-7.2-1.3-10.6c-0.9-2.9-1.8-5.9-2.7-8.8c-1-3.1-1.9-6.2-2.9-9.3
		c-1.7-5.4-3.5-11-7.1-15.4c-3.7-4.4-9.7-7.2-15.1-5.4"/>
</g>
<g>
	<path class="st6" d="M509.6,147l-1.9-0.6c4-13.7-4.6-39.3-4.7-39.6l1.9-0.6C505.2,107.3,513.8,132.7,509.6,147z"/>
	<circle class="st6" cx="508.6" cy="154.4" r="8.4"/>
	<path class="st6" d="M453.7,183.9h-5.1c-0.6,0-1-0.4-1-1s0.4-1,1-1h5.1c1.4,0,2.7-0.5,3.7-1.5c1-1,1.5-2.3,1.5-3.7l-0.1-31.2
		c0-6.8-5.5-12.3-12.3-12.3s-12.3,5.5-12.3,12.3l0.1,29.2c0,2.8,2.3,5.2,5.2,5.2l3.5,0c0.6,0,1,0.5,1,1c0,0.5-0.5,1-1,1h0l-3.5,0
		c-3.9,0-7.2-3.3-7.2-7.2l-0.1-29.2c0-7.9,6.4-14.3,14.3-14.3c7.9,0,14.3,6.4,14.3,14.3l0.1,31.2c0,1.9-0.7,3.7-2.1,5.1
		C457.5,183.2,455.7,183.9,453.7,183.9z"/>
	<circle class="st6" cx="443" cy="180.9" r="3.5"/>
	<circle class="st6" cx="448.7" cy="182.9" r="3.5"/>
</g>
<path class="st6" d="M244.1,132l-1.9-0.6c4-13.7-4.5-39.7-4.6-40l2.4,1.8C240.3,94.3,248.2,117.7,244.1,132z"/>
<path class="st6" d="M176.6,134.4l1.9-0.6c-4-13.7,4.6-39.3,4.7-39.6l-2.1,1.4C180.8,96.7,172.4,120.1,176.6,134.4z"/>
<circle class="st6" cx="243.1" cy="139.4" r="8.4"/>
<path class="st6" d="M185.5,185.8h-5.1c-0.6,0-1-0.4-1-1s0.4-1,1-1h5.1c1.4,0,2.7-0.5,3.7-1.5c1-1,1.5-2.3,1.5-3.7l-0.1-31.2
	c0-6.8-5.5-12.3-12.3-12.3s-12.3,5.5-12.3,12.3l0.1,29.2c0,2.8,2.3,5.2,5.2,5.2l3.5,0c0.6,0,1,0.5,1,1c0,0.5-0.5,1-1,1h0l-3.5,0
	c-3.9,0-7.2-3.3-7.2-7.2l-0.1-29.2c0-7.9,6.4-14.3,14.3-14.3c7.9,0,14.3,6.4,14.3,14.3l0.1,31.2c0,1.9-0.7,3.7-2.1,5.1
	C189.2,185,187.4,185.8,185.5,185.8z"/>
<circle class="st6" cx="174.8" cy="182.8" r="3.5"/>
<circle class="st6" cx="180.4" cy="184.8" r="3.5"/>
</svg>
